<svg width="203" height="203" viewBox="0 0 203 203" fill="none" xmlns="http://www.w3.org/2000/svg">
<g clip-path="url(#clip0)">
<path d="M201.919 86.6663C201.407 86.202 189.239 75.2928 178.666 75.2928C173.25 75.2928 165.691 77.2879 158.381 79.2172C152.624 80.7365 146.672 82.3078 143.59 82.3078C141.683 82.3078 137.481 79.6275 133.419 77.0353C125.306 71.8592 114.195 64.7697 101.5 64.7697C91.7529 64.7697 80.4824 68.7892 71.3506 75.5231C62.8305 81.8054 57.5109 89.3652 56.3591 96.6653C45.3016 98.5161 35.5572 107.363 26.1093 115.947C17.8486 123.453 10.0462 130.543 2.88012 131.439C1.20695 131.648 -0.0368199 133.089 0.000449646 134.775C0.0377192 136.46 1.34493 137.845 3.02523 137.979C3.38841 138.008 6.30495 138.23 10.6167 138.23C20.1676 138.23 36.5551 137.142 47.1329 130.467C54.3803 125.893 58.564 120.82 60.9587 116.785C66.23 127.411 73.9844 136.313 74.4765 136.872C75.1009 137.582 76.0006 137.99 76.9462 137.99H83.9489C83.9525 137.99 83.956 137.99 83.9588 137.99C83.9632 137.99 83.9675 137.99 83.9719 137.99H90.9762C92.7921 137.99 94.2646 136.518 94.2646 134.701C94.2646 132.885 92.7925 131.413 90.9762 131.413H86.4824L85.2759 126.922C90.2716 124.608 94.0711 120.53 95.9695 115.642C96.9349 115.057 100.336 113.17 104.469 112.88C106.8 112.716 109.351 113.506 112.306 114.421C115.749 115.487 119.611 116.678 124.439 116.903L137.515 133.247C138.139 134.027 139.084 134.482 140.082 134.482H150.605C152.421 134.482 153.894 133.009 153.894 131.193C153.894 129.465 152.56 128.051 150.866 127.918L150.49 122.158C160.339 114.313 170.106 108.89 176.683 105.677C185.135 101.548 191.251 99.6226 193.121 99.3788C198.751 98.6445 201.887 93.1865 202.852 90.0777C203.232 88.8565 202.868 87.5251 201.919 86.6663ZM55.1923 113.635C53.4132 116.569 49.9615 120.907 43.6244 124.906C36.726 129.259 26.4785 130.87 18.0726 131.403C22.1972 128.39 26.3104 124.652 30.5329 120.815C38.9332 113.182 47.5893 105.322 56.4099 103.357C56.6513 104.99 57.0371 106.645 57.5351 108.3C57.4165 108.805 56.8646 110.877 55.1923 113.635ZM192.271 92.8582C186.54 93.6056 164.802 101.939 145.016 118.127C144.195 118.799 143.748 119.826 143.818 120.886L144.276 127.906H141.664L129.265 112.408C129.254 110.983 129.546 107.918 131.942 105.402C133.194 104.087 133.144 102.006 131.829 100.753C130.514 99.5009 128.432 99.5517 127.18 100.866C124.227 103.967 123.179 107.528 122.843 110.183C119.673 109.817 116.928 108.969 114.252 108.14C110.815 107.076 107.57 106.072 104.01 106.321C101.489 106.498 99.1945 107.096 97.2997 107.781C97.0793 101.953 94.2052 96.7017 89.3109 93.3943C87.8067 92.3781 85.7624 92.773 84.7454 94.278C83.7288 95.7827 84.1245 97.827 85.6292 98.8436C89.2681 101.302 91.109 105.279 90.6784 109.754C90.1995 114.728 86.9055 119.094 82.0818 121.147C79.4389 122.271 78.023 125.268 78.7886 128.118L79.6744 131.414H78.4758C74.9435 127.132 62.6985 111.434 62.6985 99.627C62.6985 86.6762 83.7316 71.3474 101.501 71.3474C112.277 71.3474 122.039 77.5757 129.883 82.5802C135.404 86.1029 139.765 88.8851 143.592 88.8851C147.527 88.8851 153.614 87.2781 160.06 85.5768C166.643 83.8394 174.104 81.8697 178.667 81.8697C184.294 81.8697 191.722 86.8447 195.692 90.0135C194.946 91.2703 193.775 92.662 192.271 92.8582Z" fill="#6E5FB4"/>
</g>
<defs>
<clipPath id="clip0">
<rect width="203" height="203" fill="white"/>
</clipPath>
</defs>
</svg>
