<svg width="190" height="107" viewBox="0 0 190 107" fill="none" xmlns="http://www.w3.org/2000/svg">
<path d="M16.2148 101.387C14.2344 101.387 12.4531 101.059 10.8711 100.402C9.30078 99.7344 8 98.8086 6.96875 97.625C5.94922 96.4297 5.16406 95.0176 4.61328 93.3887C4.07422 91.7598 3.80469 89.9727 3.80469 88.0273C3.80469 85.4023 4.30273 83.082 5.29883 81.0664C6.29492 79.0508 7.77734 77.4629 9.74609 76.3027C11.7148 75.1426 14.0469 74.5625 16.7422 74.5625C19.7305 74.5625 22.3555 75.2422 24.6172 76.6016L23.457 79.1152C21.2773 77.8613 19.0508 77.2344 16.7773 77.2344C15.1953 77.2344 13.7773 77.5098 12.5234 78.0605C11.2812 78.5996 10.2617 79.3555 9.46484 80.3281C8.67969 81.2891 8.07617 82.4258 7.6543 83.7383C7.24414 85.0391 7.03906 86.4688 7.03906 88.0273C7.03906 91.332 7.85938 93.9453 9.5 95.8672C11.1523 97.7773 13.584 98.7324 16.7949 98.7324C18.623 98.7324 20.4805 98.3633 22.3672 97.625V90.207H16.2324L16.3379 87.5527H25.2148V99.4355C23.7383 100.139 22.3086 100.643 20.9258 100.947C19.5547 101.24 17.9844 101.387 16.2148 101.387ZM35.6035 99.0312C36.998 99.0312 38.2227 98.6504 39.2773 97.8887C40.3438 97.1152 41.0293 96.0781 41.334 94.7773V91.5254C41.2754 91.5254 40.918 91.5547 40.2617 91.6133C39.6172 91.6719 39.1953 91.707 38.9961 91.7188C36.4531 91.9414 34.6777 92.3574 33.6699 92.9668C32.6738 93.5762 32.1758 94.5547 32.1758 95.9023C32.1758 96.9336 32.4805 97.7129 33.0898 98.2402C33.6992 98.7676 34.5371 99.0312 35.6035 99.0312ZM41.9844 101C41.8086 100.25 41.6387 99.4414 41.4746 98.5742C40.4082 99.6406 39.4062 100.379 38.4688 100.789C37.5312 101.199 36.4297 101.404 35.1641 101.404C33.3594 101.404 31.9062 100.936 30.8047 99.998C29.7148 99.0488 29.1699 97.6895 29.1699 95.9199C29.1699 93.9512 29.9141 92.4922 31.4023 91.543C32.9023 90.5938 35.0586 90.002 37.8711 89.7676C38.2578 89.7324 38.8379 89.6855 39.6113 89.627C40.3965 89.5566 40.9824 89.5039 41.3691 89.4688V87.7637C41.3691 86.4043 41.0527 85.3965 40.4199 84.7402C39.7871 84.084 38.791 83.7559 37.4316 83.7559C35.5332 83.7559 33.6172 84.2246 31.6836 85.1621C31.625 85.0215 31.4727 84.6172 31.2266 83.9492C30.9805 83.2695 30.8516 82.918 30.8398 82.8945C31.6953 82.4141 32.709 82.0332 33.8809 81.752C35.0645 81.459 36.2656 81.3125 37.4844 81.3125C39.8867 81.3125 41.6152 81.8398 42.6699 82.8945C43.7363 83.9375 44.2695 85.7188 44.2695 88.2383V101H41.9844ZM73.8184 101V90.9629C73.8184 90.0254 73.7949 89.2402 73.748 88.6074C73.7129 87.9746 73.6191 87.3301 73.4668 86.6738C73.3262 86.0176 73.1211 85.502 72.8516 85.127C72.5938 84.7402 72.2305 84.4297 71.7617 84.1953C71.293 83.9492 70.7305 83.8262 70.0742 83.8262C68.7852 83.8262 67.6836 84.1719 66.7695 84.8633C65.8672 85.5547 65.2227 86.5273 64.8359 87.7812C64.7305 88.625 64.6777 89.5273 64.6777 90.4883V101H61.7422V90.6465C61.7422 89.7793 61.7129 89.0293 61.6543 88.3965C61.5957 87.752 61.4844 87.1309 61.3203 86.5332C61.1562 85.9238 60.9336 85.4316 60.6523 85.0566C60.3828 84.6816 60.0195 84.3828 59.5625 84.1602C59.1055 83.9375 58.5605 83.8262 57.9277 83.8262C56.5215 83.8262 55.3379 84.1836 54.377 84.8984C53.4277 85.6133 52.7891 86.5625 52.4609 87.7461C52.3555 88.6484 52.3027 89.627 52.3027 90.6816V101H49.3672C49.3438 88.9414 49.332 82.5137 49.332 81.7168H51.793L52.1621 84.4766C52.748 83.5859 53.5801 82.8359 54.6582 82.2266C55.7363 81.6172 56.9609 81.3125 58.332 81.3125C59.0469 81.3125 59.7031 81.3887 60.3008 81.541C60.9102 81.6816 61.4141 81.8633 61.8125 82.0859C62.2227 82.3086 62.5859 82.5781 62.9023 82.8945C63.2188 83.1992 63.4648 83.5039 63.6406 83.8086C63.8164 84.1016 63.9629 84.4121 64.0801 84.7402C65.4863 82.4551 67.6367 81.3125 70.5312 81.3125C72.6758 81.3125 74.2461 81.9277 75.2422 83.1582C76.25 84.377 76.7539 86.1875 76.7539 88.5898V101H73.8184ZM91.625 85.2852C90.7695 84.2539 89.5918 83.7383 88.0918 83.7383C86.5918 83.7383 85.3672 84.2715 84.418 85.3379C83.4688 86.3926 82.9121 87.8398 82.748 89.6797H92.9258C92.9258 87.7695 92.4922 86.3047 91.625 85.2852ZM88.6719 101.404C85.8711 101.404 83.6621 100.514 82.0449 98.7324C80.4395 96.9512 79.6367 94.5137 79.6367 91.4199C79.6367 88.4316 80.416 86.0117 81.9746 84.1602C83.5332 82.2969 85.584 81.3477 88.127 81.3125C90.5176 81.3125 92.4102 82.1328 93.8047 83.7734C95.2109 85.4023 95.9141 87.582 95.9141 90.3125C95.9141 90.4531 95.9082 90.7109 95.8965 91.0859C95.8965 91.4609 95.8965 91.7305 95.8965 91.8945H82.6602C82.6953 94.0859 83.2578 95.7969 84.3477 97.0273C85.4492 98.2461 86.9258 98.8555 88.7773 98.8555C90.8164 98.8555 92.8613 98.3164 94.9121 97.2383L95.3691 99.6113C93.4121 100.807 91.1797 101.404 88.6719 101.404ZM111.137 91.4023C111.137 93.6875 111.641 95.5215 112.648 96.9043C113.668 98.2754 115.15 98.9609 117.096 98.9609C119.018 98.9609 120.465 98.2754 121.438 96.9043C122.422 95.5332 122.914 93.6875 122.914 91.3672C122.914 89.0117 122.428 87.1602 121.455 85.8125C120.494 84.4531 119.023 83.7734 117.043 83.7734C115.121 83.7734 113.656 84.4648 112.648 85.8477C111.641 87.2305 111.137 89.082 111.137 91.4023ZM125.955 91.3496C125.955 94.3379 125.158 96.7637 123.564 98.627C121.971 100.479 119.768 101.404 116.955 101.404C114.248 101.404 112.092 100.467 110.486 98.5918C108.893 96.7168 108.096 94.3086 108.096 91.3672C108.096 88.3672 108.898 85.9414 110.504 84.0898C112.109 82.2383 114.312 81.3125 117.113 81.3125C119.867 81.3125 122.029 82.2441 123.6 84.1074C125.17 85.959 125.955 88.373 125.955 91.3496ZM134.85 101L127.379 81.7168H130.525L134.779 93.1777C134.779 93.1777 135.365 94.8066 136.537 98.0645C136.936 96.8105 137.486 95.1934 138.189 93.2129C139.08 90.7168 140.463 86.8848 142.338 81.7168H145.467L138.049 101H134.85ZM158.914 85.2852C158.059 84.2539 156.881 83.7383 155.381 83.7383C153.881 83.7383 152.656 84.2715 151.707 85.3379C150.758 86.3926 150.201 87.8398 150.037 89.6797H160.215C160.215 87.7695 159.781 86.3047 158.914 85.2852ZM155.961 101.404C153.16 101.404 150.951 100.514 149.334 98.7324C147.729 96.9512 146.926 94.5137 146.926 91.4199C146.926 88.4316 147.705 86.0117 149.264 84.1602C150.822 82.2969 152.873 81.3477 155.416 81.3125C157.807 81.3125 159.699 82.1328 161.094 83.7734C162.5 85.4023 163.203 87.582 163.203 90.3125C163.203 90.4531 163.197 90.7109 163.186 91.0859C163.186 91.4609 163.186 91.7305 163.186 91.8945H149.949C149.984 94.0859 150.547 95.7969 151.637 97.0273C152.738 98.2461 154.215 98.8555 156.066 98.8555C158.105 98.8555 160.15 98.3164 162.201 97.2383L162.658 99.6113C160.701 100.807 158.469 101.404 155.961 101.404ZM175.93 81.541C176.457 81.541 176.938 81.5762 177.371 81.6465L177.266 84.3535C176.727 84.2598 176.258 84.2129 175.859 84.2129C174.219 84.2129 172.883 84.7871 171.852 85.9355C170.832 87.0723 170.322 88.4844 170.322 90.1719V101H167.387C167.375 89.1641 167.369 82.7363 167.369 81.7168H169.812L170.094 85.1797C170.762 84.0898 171.611 83.2109 172.643 82.543C173.674 81.875 174.77 81.541 175.93 81.541ZM181.309 100.525C180.898 100.057 180.693 99.5117 180.693 98.8906C180.693 98.2695 180.898 97.7305 181.309 97.2734C181.73 96.8047 182.305 96.5703 183.031 96.5703C183.77 96.5703 184.344 96.7988 184.754 97.2559C185.164 97.7129 185.369 98.2578 185.369 98.8906C185.369 99.5234 185.164 100.068 184.754 100.525C184.344 100.982 183.77 101.211 183.031 101.211C182.305 101.211 181.73 100.982 181.309 100.525ZM184.754 74.7031V77.1992L183.77 93.3535H182.381L181.291 77.1992V74.7031H184.754Z" fill="black"/>
<g clip-path="url(#clip0)">
<path d="M187.467 42.6928C187.215 42.4641 181.221 37.09 176.012 37.09C173.344 37.09 169.621 38.0729 166.019 39.0232C163.184 39.7717 160.252 40.5457 158.734 40.5457C157.794 40.5457 155.724 39.2254 153.723 37.9484C149.727 35.3986 144.253 31.9062 137.999 31.9062C133.198 31.9062 127.646 33.8863 123.148 37.2035C118.95 40.2982 116.33 44.0223 115.763 47.6184C110.315 48.5301 105.515 52.8883 100.861 57.1168C96.7919 60.8144 92.9483 64.3068 89.4182 64.748C88.594 64.8512 87.9813 65.5609 87.9997 66.3914C88.018 67.2219 88.662 67.9037 89.4897 67.9701C89.6686 67.9844 91.1053 68.0934 93.2294 68.0934C97.9342 68.0934 106.007 67.5578 111.218 64.2693C114.788 62.0164 116.849 59.5172 118.028 57.5295C120.625 62.7643 124.445 67.149 124.687 67.4248C124.995 67.7746 125.438 67.9752 125.904 67.9752H129.354C129.355 67.9752 129.357 67.9756 129.358 67.9756C129.361 67.9756 129.363 67.9752 129.365 67.9752H132.815C133.71 67.9752 134.435 67.25 134.435 66.3553C134.435 65.4607 133.71 64.7354 132.815 64.7354H130.602L130.007 62.523C132.468 61.3834 134.34 59.3746 135.275 56.9664C135.751 56.6781 137.426 55.7488 139.462 55.6059C140.61 55.525 141.867 55.9143 143.323 56.365C145.019 56.8902 146.921 57.4769 149.299 57.5875L155.741 65.6391C156.048 66.0232 156.514 66.2471 157.006 66.2471H162.189C163.084 66.2471 163.809 65.5219 163.809 64.6271C163.809 63.7758 163.152 63.0791 162.317 63.0137L162.132 60.1764C166.984 56.3119 171.795 53.6402 175.036 52.0574C179.199 50.0238 182.212 49.0752 183.133 48.9551C185.907 48.5934 187.451 45.9047 187.926 44.3732C188.114 43.7717 187.934 43.1158 187.467 42.6928ZM115.188 55.9777C114.311 57.4232 112.611 59.56 109.489 61.5301C106.091 63.6746 101.043 64.4682 96.9022 64.7305C98.934 63.2461 100.96 61.4051 103.04 59.5148C107.178 55.7549 111.442 51.883 115.788 50.9148C115.907 51.7193 116.097 52.5346 116.342 53.3496C116.283 53.5984 116.012 54.6191 115.188 55.9777ZM182.714 45.743C179.891 46.1111 169.183 50.216 159.436 58.1904C159.031 58.5215 158.811 59.0277 158.846 59.5496L159.071 63.008H157.785L151.677 55.3736C151.672 54.6715 151.815 53.1615 152.996 51.9223C153.612 51.2742 153.588 50.249 152.94 49.632C152.292 49.0152 151.267 49.0402 150.649 49.6879C149.195 51.215 148.679 52.9693 148.513 54.2771C146.952 54.0973 145.599 53.6791 144.281 53.2711C142.588 52.7469 140.99 52.2521 139.236 52.375C137.994 52.4623 136.864 52.7564 135.93 53.0939C135.822 50.223 134.406 47.6363 131.995 46.007C131.254 45.5064 130.247 45.701 129.746 46.4424C129.245 47.1836 129.44 48.1906 130.181 48.6914C131.974 49.9025 132.881 51.8615 132.669 54.066C132.433 56.5164 130.81 58.6668 128.434 59.6783C127.132 60.2322 126.434 61.7086 126.812 63.1123L127.248 64.7361H126.657C124.917 62.6268 118.885 54.8937 118.885 49.0773C118.885 42.6977 129.247 35.1465 138 35.1465C143.308 35.1465 148.117 38.2146 151.981 40.6799C154.701 42.4152 156.849 43.7857 158.734 43.7857C160.673 43.7857 163.672 42.9941 166.847 42.1561C170.09 41.3002 173.765 40.3299 176.013 40.3299C178.785 40.3299 182.444 42.7807 184.4 44.3416C184.032 44.9607 183.455 45.6463 182.714 45.743Z" fill="#6E5FB4"/>
</g>
<rect x="29" y="40" width="75" height="2" rx="1" fill="#6E5FB4"/>
<rect x="45" y="47" width="49" height="2" rx="1" fill="#6E5FB4"/>
<rect x="33" y="54" width="55" height="2" rx="1" fill="#6E5FB4"/>
<defs>
<clipPath id="clip0">
<rect width="100" height="100" fill="white" transform="translate(88)"/>
</clipPath>
</defs>
</svg>
