<svg width="180" height="169" viewBox="0 0 180 169" fill="none" xmlns="http://www.w3.org/2000/svg">
<rect x="71" y="19.0385" width="45" height="6.92308" fill="#F6F6F6"/>
<rect x="96.9615" width="45" height="6.92308" transform="rotate(90 96.9615 0)" fill="#F6F6F6"/>
<rect x="155" y="127.577" width="25" height="3.84615" fill="#F6F6F6"/>
<rect x="169.423" y="117" width="25" height="3.84615" transform="rotate(90 169.423 117)" fill="#F6F6F6"/>
<rect x="109" y="89.2692" width="29" height="4.46154" fill="#F6F6F6"/>
<rect x="125.731" y="77" width="29" height="4.46154" transform="rotate(90 125.731 77)" fill="#F6F6F6"/>
<rect x="133" y="61.0385" width="19" height="2.92308" fill="#F6F6F6"/>
<rect x="143.962" y="53" width="19" height="2.92308" transform="rotate(90 143.962 53)" fill="#F6F6F6"/>
<rect y="86" width="78" height="12" fill="#F6F6F6"/>
<rect x="45" y="53" width="78" height="12" transform="rotate(90 45 53)" fill="#F6F6F6"/>
<rect x="78" y="138.4" width="45" height="10.2" fill="#F6F6F6"/>
<ellipse cx="100.105" cy="124.8" rx="6.31579" ry="6.8" fill="#F6F6F6"/>
<ellipse cx="100.105" cy="162.2" rx="6.31579" ry="6.8" fill="#F6F6F6"/>
<rect x="105" y="62.4" width="14" height="3.2" fill="#F6F6F6"/>
<ellipse cx="111.877" cy="58.1333" rx="1.96491" ry="2.13333" fill="#F6F6F6"/>
<ellipse cx="111.877" cy="69.8667" rx="1.96491" ry="2.13333" fill="#F6F6F6"/>
<rect x="145" y="98.4" width="14" height="3.2" fill="#F6F6F6"/>
<ellipse cx="151.877" cy="94.1333" rx="1.96491" ry="2.13333" fill="#F6F6F6"/>
<ellipse cx="151.877" cy="105.867" rx="1.96491" ry="2.13333" fill="#F6F6F6"/>
</svg>
